<svg id="Capa_1" data-name="Capa 1" xmlns="http://www.w3.org/2000/svg" viewBox="0 0 80.37 33.24"><defs><style>.cls-1{fill:#e62e28;}</style></defs><path class="cls-1" d="M0,30.1c.29-1.73.59-3.46.88-5.19.35-2.15.73-4.31,1-6.47.53-3.55,1-7.11,1.54-10.65a21.38,21.38,0,0,1,.69-2.7,1.4,1.4,0,0,1,.28-.54c.4-.5.82-.46,1,.15a23.28,23.28,0,0,1,.54,3c.14,1.15.19,2.3.26,3.46.1,1.57,1.22,2.22,2.5,1.29a20.06,20.06,0,0,0,2.64-2.5c3-3.09,5.93-6.22,9.75-8.32A23.31,23.31,0,0,1,24.51.13a1.78,1.78,0,0,1,2,.49,2,2,0,0,1,.3,1.92,3,3,0,0,1-2.49,2.39A10.42,10.42,0,0,0,20.6,6.86a47.48,47.48,0,0,0-7.41,6.54c-.8.83-.8,1.1-.21,2.09,1.09,1.82,2.14,3.66,3.21,5.5a34.09,34.09,0,0,0,4.18,5.88,2,2,0,0,0,1.61.7,3,3,0,0,1,1.33.19,1.83,1.83,0,0,1,1,2.22,4.16,4.16,0,0,1-1.85,2.54c-1.36,1-2.2.92-3.49-.21a17.22,17.22,0,0,1-3.4-4.81c-1.07-1.9-2.19-3.78-3.37-5.62a4.28,4.28,0,0,0-2.72-2.27,2.67,2.67,0,0,0-3,1.23,17.23,17.23,0,0,0-1.3,3.25C4.53,26.15,4,28.23,3.47,30.3a1.9,1.9,0,0,1-2.33,1.42A1.64,1.64,0,0,1,0,30.1Z"/><path class="cls-1" d="M42.55,19.22c.26-4.11,2.63-7.4,6.58-8.16a5.59,5.59,0,0,1,5.78,1.83,3,3,0,0,1,.63,1.37,7,7,0,0,1-1.65,5.93c-.61.72-1.15,1.51-1.71,2.27-.27.36-.12.75.42,1,1,.56,2.09,1.08,3.12,1.64a12.82,12.82,0,0,1,1.89,1.14,1.74,1.74,0,0,1,.65,2A2.67,2.67,0,0,1,56,29.59a9.3,9.3,0,0,1-3.66-1.27c-1.22-.66-2.42-1.34-3.62-2A4.91,4.91,0,0,0,48.1,26c-1.05-.42-1.77,0-1.86,1.14-.07.8-.1,1.61-.17,2.41a2,2,0,0,1-1.45,1.87,1.87,1.87,0,0,1-2.12-.9,3.52,3.52,0,0,1-.27-1.69C42.23,28.64,42.36,22.37,42.55,19.22Zm9.93-2.3a2.61,2.61,0,0,0-1.84-2.76,2.59,2.59,0,0,0-3.18,1.37,6.1,6.1,0,0,0-.65,1.71c-.2,1-.29,2-.43,2.94a1.58,1.58,0,0,0,.81,1.67,1.45,1.45,0,0,0,1.75-.11c1-.84,1.89-1.77,2.83-2.66A2.77,2.77,0,0,0,52.48,16.92Z"/><path class="cls-1" d="M75.27,28.13a3.09,3.09,0,0,1-2.69-.9c-.62-.6-1.3-1.14-2-1.71a1.63,1.63,0,0,1-.06-2.27,1.15,1.15,0,0,1,1-.13,22.41,22.41,0,0,1,2,1.12c.59.34,1.16.72,1.78,1a1.08,1.08,0,0,0,.88-.06.66.66,0,0,0,.19-1,15.56,15.56,0,0,0-1.94-1.69c-1.39-1-2.83-2-4.24-3a2,2,0,0,1-.31-3.39A9.31,9.31,0,0,1,78.59,13,1.84,1.84,0,0,1,80,15.51a4.12,4.12,0,0,1-2.71,2.24,1.28,1.28,0,0,1-1.56-.9c-.22-.47-.37-1-1-1a1.5,1.5,0,0,0-1.29,1,1.48,1.48,0,0,0,.48,1.83c.63.43,1.28.83,1.92,1.25a9.2,9.2,0,0,1,3,2.66,7.76,7.76,0,0,1,.84,2.09,1.84,1.84,0,0,1-.82,2A4.77,4.77,0,0,1,75.27,28.13Z"/><path class="cls-1" d="M34.57,20.77c-.22.29-.45.58-.65.89a1.12,1.12,0,0,0-.25.64c.16,1.06.37,2.12.56,3.17,0,.18.07.37.09.55.06.72-.22,1.25-.7,1.36A1.46,1.46,0,0,1,32,26.54c-.31-.88-.62-1.75-.88-2.64a2.5,2.5,0,0,0-4.25-1A21.93,21.93,0,0,0,25,25.19a1.93,1.93,0,0,1-2,.68,2,2,0,0,1-.72-2c.92-2.73,1.82-5.47,2.77-8.2.39-1.12.89-2.2,1.35-3.3.18-.43.4-.86.94-.87a1.59,1.59,0,0,1,1.49.83c.64,1.15,1.27,2.31,1.89,3.47s1.12,2.11,1.67,3.17a.87.87,0,0,0,.91.57C34.09,19.47,34.45,19.88,34.57,20.77Zm-6.26-1h0c.33,0,.66,0,1,0s.61-.21.47-.58a24.93,24.93,0,0,0-1.21-2.75.7.7,0,0,0-1.3.17,12.39,12.39,0,0,0-.55,1.89c-.21,1.06-.11,1.15,1,1.22Z"/><path class="cls-1" d="M62.52,28.25a3.93,3.93,0,0,1-3.46-1.56,3.47,3.47,0,0,1-.47-1.06,7.76,7.76,0,0,1,1.07-5.75,20.91,20.91,0,0,1,1.55-2.29,2.76,2.76,0,0,1,3.52-.7,7,7,0,0,1,3.68,6.77,4.9,4.9,0,0,1-4.59,4.49C63.39,28.17,63,28.21,62.52,28.25Zm3.16-5.18a4,4,0,0,0,0-.49,2.24,2.24,0,0,0-2-2.19,2.07,2.07,0,0,0-2.27,1.67,7.07,7.07,0,0,0-.12,2,1.65,1.65,0,0,0,1.12,1.43C64.2,26.18,65.65,25.11,65.68,23.07Z"/><path class="cls-1" d="M37.67,14.91a1.33,1.33,0,0,1,1.25-1.47,1.1,1.1,0,0,1,1.2,1.19c.13,2.53.27,5.07.4,7.61,0,.92.09,1.85.15,2.78A1.44,1.44,0,0,1,40,26.49a1.84,1.84,0,0,1-1.89-.08,1.16,1.16,0,0,1-.57-1.09c0-1.76,0-3.51,0-5.27C37.49,19,37.67,16.63,37.67,14.91Z"/><path class="cls-1" d="M40.1,10.29a1.61,1.61,0,0,1-1.78,1.56,1.74,1.74,0,0,1-1.46-1.71,1.58,1.58,0,0,1,1.69-1.72A1.67,1.67,0,0,1,40.1,10.29Z"/></svg>