<?xml version="1.0" encoding="utf-8"?>
<!-- Generator: Adobe Illustrator 24.1.3, SVG Export Plug-In . SVG Version: 6.00 Build 0)  -->
<svg version="1.1" id="Capa_1" xmlns="http://www.w3.org/2000/svg" xmlns:xlink="http://www.w3.org/1999/xlink" x="0px" y="0px"
	 viewBox="0 0 123.9 105.5" style="enable-background:new 0 0 123.9 105.5;" xml:space="preserve">
<style type="text/css">
	.st0{fill:#FFFFFF;}
</style>
<g>
	<g>
		<path class="st0" d="M9.2,64.1c0.5-0.6,1.2-0.8,2-0.8c2.6,0,5.1,0,7.8,0c0-0.5,0-0.9,0-1.3c0-7.1,0-14.2,0-21.3
			c0-1.7,0.3-2.1,2-2.1c16.1,0,32.1,0,48.2,0c1.6,0,2,0.4,2,2c0,7.1,0,14.3,0,21.4c0,0.4,0,0.7,0,1.2c2.6,0,5.2,0,8,0
			c0-0.9,0-1.8,0-2.7c0-1.7,0-3.4,0-5c0.1-3.8,2.6-6.4,6.5-6.5c2.3,0,4.6,0,6.9,0c1.8,0,3.6,0,5.5,0c4.1,0,6.7,2.7,6.7,6.7
			c0,2.5,0,5,0,7.7c0.7,0,1.4,0,2.1,0c1.9,0,3.8,0,5.7,0c1.7,0,2,0.3,2,2c0,2.4,0,4.8,0,7.2c0,1.5-0.4,1.9-1.9,1.9
			c-0.3,0-0.6,0-1,0.1c0,0.5,0,0.9,0,1.3c0,9.3,0,18.5,0,27.8c0,1-0.3,1.7-1.3,2c-32.3,0-64.6,0-96.9,0c-1-0.3-1.3-1-1.3-2.1
			c0-9.3,0-18.6,0-27.9c0-0.4,0-0.8,0-1.2c-0.1,0.1-0.2,0.2-0.3,0.3c-0.9-0.4-1.9-0.7-2.8-1.1C9.2,70.4,9.2,67.3,9.2,64.1z
			 M109,102.8c0-9.5,0-18.9,0-28.3c-31.4,0-62.7,0-94,0c0,9.5,0,18.9,0,28.3C46.4,102.8,77.7,102.8,109,102.8z M111.9,66
			c-33.4,0-66.7,0-100,0c0,1.9,0,3.8,0,5.7c33.4,0,66.6,0,100,0C111.9,69.8,111.9,67.9,111.9,66z M22.8,51.2
			c0.3-1.5,0.9-2.8,2.1-3.8c4.3-3.7,11.4-1.5,12.3,3.3c0,0.2,0.2,0.4,0.4,0.5c0.2-0.2,0.4-0.3,0.5-0.6c0.3-0.6,0.4-1.3,0.7-1.8
			c1.8-2.7,4.4-3.7,7.5-3.3c3,0.4,5.2,1.9,6,5c0.1,0.2,0.3,0.4,0.4,0.6c0.2-0.2,0.4-0.4,0.5-0.6c0.8-3,3-4.5,5.9-5
			c3.7-0.7,7.5,1.5,8.3,4.8c0.2,0.9,0.6,0.9,1.3,0.7c0-3.3,0-6.6,0-9.8c-15.7,0-31.2,0-46.9,0c0,3.3,0,6.6,0,9.9
			C22.1,51.2,22.4,51.2,22.8,51.2z M22.7,63.2c0.1-0.1,0.1-0.1,0.1-0.2c0.5-2.8,3.4-5.2,7-5.2c3.5,0,5.9,1.6,7.2,5
			c0.1,0.2,0.3,0.3,0.4,0.5c0.2-0.2,0.4-0.3,0.5-0.5c0.5-2.6,3.4-4.9,7.1-4.9c3.4,0,6,1.8,7.1,4.9c0.1,0.2,0.3,0.4,0.4,0.6
			c0.2-0.2,0.4-0.4,0.5-0.6c0.6-2,1.9-3.3,3.7-4.2c4.4-2,8.8,0,10.6,4.7c0.3,0,0.7,0,1,0c0-3.1,0-6.2,0-9.3c-15.7,0-31.2,0-46.9,0
			c0,2.8,0,5.6,0,8.4c0,0.3,0,0.6,0.1,0.9C22.1,63.2,22.4,63.2,22.7,63.2z M102.2,63.2c0-2.7,0-5.3,0-7.9c0-2.1-1.5-3.7-3.6-3.7
			c-4.4-0.1-8.7-0.1-13.1,0c-1.9,0-3.4,1.3-3.5,3.1c-0.1,2.8,0,5.7,0,8.6C88.7,63.2,95.4,63.2,102.2,63.2z M25.5,51.2
			c1.6,0,3,0,4.5,0c1.5,0,3,0,4.5,0c-0.6-2-2.3-3.1-4.6-3.1C27.7,48.2,26.1,49.3,25.5,51.2z M49.6,51.2c-0.5-2.1-2.5-3.2-5.1-3
			c-2,0.2-3.7,1.5-3.8,3c0.2,0,0.4,0,0.6,0C44.1,51.2,46.8,51.2,49.6,51.2z M64.6,51.2c-0.3-1.8-2.1-3-4.4-3c-2.3,0-4.1,1.3-4.3,3
			C58.8,51.2,61.7,51.2,64.6,51.2z M25.6,63.3c1.5,0,3,0,4.4,0c1.5,0,2.9,0,4.4,0c-0.5-1.7-2.3-2.9-4.4-2.9
			C27.9,60.4,26.1,61.5,25.6,63.3z M40.7,63.2c3,0,5.9,0,8.8,0c-0.4-1.6-2.1-2.7-4.2-2.8C43.2,60.4,41.3,61.5,40.7,63.2z M55.8,63.2
			c3,0,5.9,0,8.8,0c-0.5-1.7-2.3-2.8-4.4-2.8C58.1,60.4,56.3,61.5,55.8,63.2z"/>
		<path class="st0" d="M42.4,7.7c0-1.7,0-3.3,0-5c-0.4,0-0.8,0-1.2,0c-9.9,0-19.8,0-29.7,0c-0.3,0-0.7,0-1,0
			C9.8,2.5,9.4,2.1,9.4,1.3c0-0.7,0.4-1.1,1.1-1.3c0.3-0.1,0.6,0,0.9,0c33.8,0,67.5,0,101.3,0c0.3,0,0.7-0.1,0.9,0.1
			c0.4,0.4,1.1,0.8,1,1.3c0,0.4-0.6,0.9-1.1,1.3c-0.2,0.2-0.7,0.1-1,0.1c-10,0-20,0-30,0c-0.4,0-0.8,0-1.3,0c0,1.7,0,3.3,0,5
			c0.4,0,0.8,0,1.1,0c2.3,0,4.6,0,6.9,0c1.2,0,1.7,0.5,1.7,1.7c0,7,0,13.9,0,20.9c0,1.2-0.4,1.7-1.7,1.7c-18.3,0-36.7,0-55,0
			c-1.2,0-1.7-0.4-1.7-1.7c0-6.9,0-13.9,0-20.8c0-1.3,0.4-1.8,1.8-1.8c2.2,0,4.5,0,6.7,0C41.6,7.7,42,7.7,42.4,7.7z M88.3,29.3
			c0-6.4,0-12.6,0-18.9c-17.7,0-35.3,0-52.9,0c0,6.3,0,12.6,0,18.9C53.1,29.3,70.7,29.3,88.3,29.3z M45.2,7.6c11.2,0,22.2,0,33.4,0
			c0-1.6,0-3.2,0-4.9c-11.2,0-22.3,0-33.4,0C45.2,4.4,45.2,6,45.2,7.6z"/>
		<path class="st0" d="M60.6,24.4c-3.9,0-7.8,0-11.7,0c-0.3,0-0.5,0-0.8,0c-0.8,0-1.3-0.4-1.3-1.3c0-0.8,0.5-1.3,1.3-1.3
			c0.3,0,0.5,0,0.8,0c7.9,0,15.7,0,23.6,0c0.2,0,0.3,0,0.5,0c1,0,1.6,0.5,1.6,1.3c0,0.8-0.6,1.3-1.7,1.3
			C68.8,24.4,64.7,24.4,60.6,24.4z"/>
		<path class="st0" d="M60.9,17.9c-2.6,0-5.3,0-7.9,0c-1.2,0-1.8-0.5-1.8-1.3c0-0.8,0.6-1.3,1.7-1.3c5.3,0,10.6,0,16,0
			c0.6,0,1.3,0.4,1.6,0.8c0.6,0.9-0.2,1.8-1.4,1.8C66.3,17.9,63.6,17.9,60.9,17.9z"/>
	</g>
</g>
</svg>
