<?xml version="1.0" encoding="utf-8"?>
<!-- Generator: Adobe Illustrator 24.1.3, SVG Export Plug-In . SVG Version: 6.00 Build 0)  -->
<svg version="1.1" id="Capa_1" xmlns="http://www.w3.org/2000/svg" xmlns:xlink="http://www.w3.org/1999/xlink" x="0px" y="0px"
	 viewBox="0 0 123.9 105.5" style="enable-background:new 0 0 123.9 105.5;" xml:space="preserve">
<style type="text/css">
	.st0{fill:#FFFFFF;}
</style>
<g>
	<g>
		<path class="st0" d="M95.4,61.5c0-13.4,0-26.9,0-40.3c0-2.8,1-3.8,3.7-3.8c3.3,0,6.6,0,9.9,0c2.6,0,3.6,1,3.6,3.6
			c0,26.9,0,53.9,0,80.8c0,2.5-1,3.6-3.5,3.6c-3.4,0-6.8,0-10.2,0c-2.5,0-3.5-1-3.5-3.6C95.4,88.5,95.4,75,95.4,61.5z M99.4,21.4
			c0,26.8,0,53.5,0,80.2c3.2,0,6.3,0,9.4,0c0-26.8,0-53.5,0-80.2C105.6,21.4,102.5,21.4,99.4,21.4z"/>
		<path class="st0" d="M91.6,73.1c0,9.6,0,19.2,0,28.8c0,2.5-1,3.6-3.5,3.6c-3.4,0-6.8,0-10.2,0c-2.5,0-3.5-1-3.5-3.6
			c0-19.3,0-38.7,0-58c0-2.5,1-3.5,3.5-3.5c3.4,0,6.9,0,10.3,0c2.5,0,3.5,1.1,3.5,3.5C91.6,53.7,91.6,63.4,91.6,73.1z M78.3,44.3
			c0,19.1,0,38.2,0,57.3c3.2,0,6.3,0,9.5,0c0-19.1,0-38.2,0-57.3C84.6,44.3,81.5,44.3,78.3,44.3z"/>
		<path class="st0" d="M95.9,7.3c-2.1,3.1-4.1,6.2-6.2,9.1C70.6,42.8,45.8,61.6,15.3,72.8c-0.3,0.1-0.5,0.2-0.8,0.3
			c-1.1,0.2-2-0.2-2.3-1.2c-0.4-1,0.1-2,1.1-2.4c2.2-0.9,4.5-1.7,6.7-2.6c23.5-9.7,43.4-24.3,59.7-43.8c4.6-5.4,8.7-11.2,12.5-17.2
			c0.2-0.3,0.4-0.7,0.7-1.2c-1.5,0.3-2.8,0.5-4.1,0.7c-1.5,0.2-2.6-0.7-2.4-2c0.1-1,0.7-1.6,1.7-1.7c2.7-0.5,5.4-1,8.1-1.5
			c1.7-0.3,2.4,0.3,2.7,1.9c0.5,2.6,1,5.2,1.5,7.9c0.2,1.4-0.3,2.3-1.5,2.5c-1.1,0.2-1.9-0.5-2.2-1.8c-0.1-0.5-0.2-1.1-0.3-1.6
			C96.1,8.5,96,8,95.9,7.3z"/>
		<path class="st0" d="M70.5,82.6c0,6.5,0,12.9,0,19.4c0,2.6-1,3.6-3.5,3.6c-3.4,0-6.9,0-10.3,0c-2.4,0-3.4-1.1-3.4-3.4
			c0-13,0-26.1,0-39.1c0-2.3,1-3.4,3.3-3.4c3.5,0,7,0,10.5,0c2.4,0,3.4,1.1,3.4,3.5C70.6,69.6,70.5,76.1,70.5,82.6z M66.6,101.6
			c0-12.8,0-25.4,0-38.1c-3.2,0-6.3,0-9.4,0c0,12.8,0,25.5,0,38.1C60.4,101.6,63.5,101.6,66.6,101.6z"/>
		<path class="st0" d="M49.5,88.4c0,4.5,0,9.1,0,13.6c0,2.4-1,3.4-3.4,3.5c-3.5,0-6.9,0-10.4,0c-2.4,0-3.4-1.1-3.4-3.4
			c0-9.2,0-18.4,0-27.6c0-2.3,1-3.4,3.3-3.4c3.5,0,7,0,10.5,0c2.3,0,3.4,1.1,3.4,3.4C49.5,79.1,49.5,83.8,49.5,88.4z M45.6,75
			c-3.2,0-6.4,0-9.5,0c0,8.9,0,17.8,0,26.6c3.2,0,6.3,0,9.5,0C45.6,92.7,45.6,83.9,45.6,75z"/>
		<path class="st0" d="M28.4,94.2c0,2.7,0,5.3,0,8c0,2.2-1.1,3.3-3.3,3.3c-3.5,0-7.1,0-10.6,0c-2.2,0-3.3-1.1-3.3-3.3
			c0-5.5,0-10.9,0-16.4c0-2.1,1.1-3.3,3.2-3.3c3.6,0,7.2,0,10.8,0c2.2,0,3.2,1.1,3.2,3.4C28.4,88.7,28.4,91.4,28.4,94.2z M15.1,86.5
			c0,5.1,0,10.1,0,15.2c3.2,0,6.3,0,9.5,0c0-5.1,0-10.1,0-15.2C21.4,86.5,18.2,86.5,15.1,86.5z"/>
	</g>
</g>
</svg>
