<?xml version="1.0" encoding="utf-8"?>
<!-- Generator: Adobe Illustrator 24.1.3, SVG Export Plug-In . SVG Version: 6.00 Build 0)  -->
<svg version="1.1" id="Capa_1" xmlns="http://www.w3.org/2000/svg" xmlns:xlink="http://www.w3.org/1999/xlink" x="0px" y="0px"
	 viewBox="0 0 123.9 105.5" style="enable-background:new 0 0 123.9 105.5;" xml:space="preserve">
<style type="text/css">
	.st0{fill:#FFFFFF;}
</style>
<g>
	<g>
		<path class="st0" d="M105.5,3.4c0.9,0.5,1.2,1.3,1.2,2.3c0,13.3,0,26.6,0,39.8c0,1.8-0.5,2.3-2.3,2.3c-14.9,0-29.9,0-44.8,0
			c-0.8,0-1.2,0.2-1.6,0.9c-1.5,2.6-4.8,3.4-7.4,2c-2.3-1.2-4.6-2.5-6.8-3.7c-0.3-0.2-0.6-0.3-1-0.5c0,0.5,0,0.9,0,1.3
			c0,3.2,0,6.5,0,9.7c0,1.5-0.6,2.1-2,2.1c-5.7,0-11.3,0-17,0c-1.5,0-2-0.6-2-2.1c0-0.7,0-1.3,0-1.9c-0.9-0.1-1.8,0-2.6-0.2
			c-1.9-0.4-3.5-2.1-3.5-4c0-4.4-0.4-8.7,0.4-13c0.6-3,1.8-5.8,3.5-8.4c1.6-2.2,3.8-3.4,6.4-3.5c3.9-0.2,7.9-0.1,11.8-0.1
			c2.4,0,4.4,1.2,6,3c0.3,0.3,0.6,0.7,1,1.2c0-0.6,0-0.9,0-1.3c0-7.9,0-15.8,0-23.8c0-1,0.3-1.8,1.2-2.3
			C65.7,3.4,85.6,3.4,105.5,3.4z M66.8,27.3c-0.2,0.3-0.4,0.6-0.6,0.9c-2.8,4.1-5.5,8.2-8.3,12.3c-0.6,0.8-1,1.5-0.1,2.4
			c0.2,0.2,0.4,0.6,0.5,0.9c0.1,0.7,0.6,0.9,1.3,0.9c14.2,0,28.5,0,42.7,0c0.3,0,0.6,0,0.9,0c0-12.7,0-25.2,0-37.8
			c-18.4,0-36.8,0-55.2,0c0,0.4,0,0.7,0,1c0,9.2,0,18.3,0,27.5c0,0.5,0.1,1.3,0.5,1.5c1.9,1.2,3.9,2.2,5.8,3.3
			c3.3-4.9,6.5-9.7,9.8-14.5C65,26.1,65.9,26.7,66.8,27.3z M39.3,56.3c0-1,0-2,0-3c0-3.8,0-7.7,0-11.5c0-1.6,0.5-2.3,1.7-2.3
			c1.1,0,1.6,0.7,1.6,2.3c0,0.1,0,0.3,0,0.4c0.1,0.3,0.2,0.6,0.5,0.8c3,1.7,6,3.3,9,4.9c1.5,0.8,3.3-0.4,3.3-2.1
			c0-1.1-0.6-1.8-1.6-2.4c-2.3-1.3-4.7-2.5-7-3.8c-0.5-0.3-1-0.8-1.4-1.3c-1.3-1.9-2.4-3.9-3.7-5.8c-1.1-1.7-2.6-2.8-4.6-2.8
			c-3.5-0.1-7.1-0.1-10.6,0c-1.9,0-3.5,0.7-4.6,2.3c-1.5,2.2-2.7,4.7-2.9,7.3c-0.3,3.8-0.3,7.6-0.4,11.5c0,0.9,0.6,1.5,1.4,1.5
			c0.8,0,1.4-0.5,1.4-1.5c0-0.7,0-1.5,0-2.2c0-2.9,0-5.7,0-8.6c0-1.1,0.7-1.8,1.6-1.7c0.9,0,1.6,0.7,1.6,1.8c0,0.3,0,0.5,0,0.8
			c0,4.8,0,9.5,0,14.3c0,0.4,0,0.7,0,1.1C29.6,56.3,34.4,56.3,39.3,56.3z"/>
		<path class="st0" d="M46.8,98.7c0-1.8-0.1-3.5,0-5.3c0.4-3.8,2.4-6.5,5.5-8.6c7.1-4.7,16.9-3.6,22.2,2.6c1.8,2.1,2.6,4.5,2.7,7.2
			c0,3,0,6,0,9c0,1.5-0.8,2.2-2.3,2c-0.5-0.1-1-0.1-1.5-0.1c-8.2,0-16.3,0-24.5,0c-1.9,0-2.4-0.5-2.4-2.4c0-0.7,0-1.5,0.1-2.2
			c0-0.7,0-1.5,0-2.2C46.7,98.7,46.8,98.7,46.8,98.7z M50.1,102.2c7.9,0,15.8,0,23.8,0c0-2.6,0-5.2,0-7.7c0-2-0.8-3.8-2.2-5.2
			c-5.4-5.4-14.3-5.3-19.6,0.1c-1.1,1.1-1.9,2.5-2,4.1C50.1,96.3,50.1,99.2,50.1,102.2z"/>
		<path class="st0" d="M12.7,98.7c0-1.8-0.2-3.6,0-5.4c0.5-4.1,2.9-7,6.4-9c7-4.1,16.2-2.7,21.3,3.1c1.9,2.1,2.7,4.6,2.7,7.4
			c0,2.9,0,5.9,0,8.8c0,1.6-0.8,2.2-2.3,2c-0.5-0.1-0.9-0.1-1.4-0.1c-8.2,0-16.3,0-24.5,0c-2,0-2.5-0.5-2.5-2.5c0-1.5,0-2.9,0-4.4
			C12.5,98.7,12.6,98.7,12.7,98.7z M39.7,102.2c0-2.8,0.1-5.6,0-8.3c-0.1-1.8-0.9-3.4-2.2-4.7c-4.9-4.9-12.8-5.4-18.5-0.9
			c-2.1,1.6-3.2,3.8-3.2,6.5c0,2.3-0.1,4.5-0.1,6.8c0,0.2,0,0.4,0.1,0.7C23.8,102.2,31.7,102.2,39.7,102.2z"/>
		<path class="st0" d="M81,98.8c0-1.8-0.1-3.5,0-5.3c0.4-4.2,2.8-7.1,6.3-9.1c6.3-3.7,14.3-3.1,19.8,1.5c2.8,2.4,4.3,5.4,4.3,9.1
			c0,2.9,0,5.8,0,8.7c0,1.6-0.8,2.2-2.3,2c-0.5-0.1-0.9-0.1-1.4-0.1c-8.2,0-16.3,0-24.5,0c-2.1,0-2.5-0.5-2.5-2.6c0-1.4,0-2.8,0-4.2
			C80.8,98.8,80.9,98.8,81,98.8z M108.1,102.2c0-2.7,0-5.2,0-7.8c0-2-0.8-3.8-2.2-5.2c-4.9-4.9-12.7-5.4-18.5-1
			c-2.1,1.6-3.2,3.8-3.2,6.5c0,1.6-0.1,3.1-0.1,4.7c0,0.9,0,1.8,0,2.8C92.1,102.2,100,102.2,108.1,102.2z"/>
		<path class="st0" d="M41,15.3c0,5.1-4.1,9.3-9.2,9.3c-5.1,0-9.3-4.1-9.3-9.2c0-5.1,4.1-9.3,9.2-9.3C36.8,6.1,41,10.2,41,15.3z
			 M31.9,9.4c-3.3,0-6,2.6-6.1,5.9c-0.1,3.3,2.6,6,5.9,6.1c3.3,0,6-2.6,6.1-5.9C37.8,12.2,35.1,9.4,31.9,9.4z"/>
		<path class="st0" d="M36.2,70.8c0,4.7-3.8,8.5-8.5,8.5c-4.7,0-8.5-3.8-8.5-8.5c0-4.7,3.8-8.5,8.4-8.5
			C32.4,62.3,36.2,66.1,36.2,70.8z M22.6,70.8c0,2.9,2.3,5.2,5.1,5.3c2.8,0,5.2-2.3,5.2-5.2c0-2.9-2.3-5.2-5.1-5.3
			C24.9,65.6,22.6,67.9,22.6,70.8z"/>
		<path class="st0" d="M87.6,70.7c0.1-4.8,3.9-8.5,8.7-8.4c4.5,0.1,8.3,4,8.2,8.6c-0.1,4.8-3.9,8.5-8.7,8.4
			C91.3,79.3,87.6,75.4,87.6,70.7z M90.9,70.9c0,2.8,2.4,5.2,5.2,5.2c2.8,0,5.2-2.4,5.1-5.3c0-2.9-2.4-5.2-5.2-5.2
			C93.2,65.7,90.9,68,90.9,70.9z"/>
		<path class="st0" d="M70.4,70.9c0,4.7-3.8,8.5-8.5,8.5c-4.7,0-8.5-3.9-8.4-8.6c0.1-4.7,3.9-8.5,8.6-8.4
			C66.7,62.4,70.4,66.2,70.4,70.9z M67.1,70.9c0-2.9-2.3-5.2-5.2-5.2c-2.8,0-5.2,2.3-5.2,5.2c0,2.9,2.3,5.2,5.2,5.2
			C64.7,76.1,67.1,73.7,67.1,70.9z"/>
		<path class="st0" d="M98,40.5c-1.1,0-2.1,0-3.2,0c0-9.5,0-18.9,0-28.4c1,0,2.1,0,3.2,0C98,21.6,98,31,98,40.5z"/>
		<path class="st0" d="M76.1,40.5c-1.1,0-2.1,0-3.1,0c0-5.6,0-11.1,0-16.7c1.1,0,2.1,0,3.1,0C76.1,29.4,76.1,34.9,76.1,40.5z"/>
		<path class="st0" d="M86,24.8c1.1,0,2.1,0,3.2,0c0,5.2,0,10.4,0,15.6c-1.1,0-2.1,0-3.2,0C86,35.3,86,30.1,86,24.8z"/>
		<path class="st0" d="M79.6,29.8c1.1,0,2.1,0,3.1,0c0,3.6,0,7.1,0,10.7c-1,0-2,0-3.1,0C79.6,36.9,79.6,33.4,79.6,29.8z"/>
	</g>
</g>
</svg>
