<?xml version="1.0" encoding="utf-8"?>
<!-- Generator: Adobe Illustrator 24.1.3, SVG Export Plug-In . SVG Version: 6.00 Build 0)  -->
<svg version="1.1" id="Capa_1" xmlns="http://www.w3.org/2000/svg" xmlns:xlink="http://www.w3.org/1999/xlink" x="0px" y="0px"
	 viewBox="0 0 123.9 105.5" style="enable-background:new 0 0 123.9 105.5;" xml:space="preserve">
<style type="text/css">
	.st0{fill:#FFFFFF;}
</style>
<g>
	<g>
		<path class="st0" d="M12.1,6.3c0.4-0.7,0.6-1.5,1.1-2.2c1.1-1.5,2.7-2,4.6-2c10.3,0,20.5,0,30.8,0c12.2,0,24.4,0,36.6,0
			c2.8,0,4.8,1.4,5.4,3.8c0.2,0.6,0.2,1.3,0.2,2c0,10.2,0,20.5,0,30.7c0,0.4,0,0.8-0.1,1.2c-0.2,0.8-0.7,1.2-1.5,1.2
			c-0.8,0-1.4-0.3-1.7-1.1c-0.1-0.5-0.1-1-0.1-1.5c0-10.1,0-20.1,0-30.2c0-2.3-0.4-2.7-2.7-2.7c-22.2,0-44.4,0-66.5,0
			c-2.3,0-2.7,0.5-2.7,2.7c0,30.2,0,60.4,0,90.6c0,2.1,0.5,2.6,2.6,2.6c22.2,0,44.5,0,66.7,0c2.1,0,2.6-0.5,2.6-2.6
			c0-5.1,0-10.2,0-15.4c0-0.5,0-0.9,0.1-1.4c0.2-0.8,0.8-1.2,1.6-1.2c0.8,0,1.4,0.5,1.6,1.3c0.1,0.4,0.1,0.9,0.1,1.3
			c0,4.9-0.1,9.8,0,14.6c0.1,3.2-0.9,5.6-4.1,6.7c-23.5,0-47,0-70.5,0c-2.2-0.6-3.6-2-4.2-4.2C12.1,69.2,12.1,37.7,12.1,6.3z"/>
		<path class="st0" d="M108,44.6c-0.2,0.4-0.4,0.7-0.6,1c-4.5,7.8-8.9,15.6-13.5,23.3c-1.4,2.4-3.4,4.4-5.1,6.7
			c-1.2,1.6-2.4,3.2-3.5,4.9c-1.3,2-3,3.1-5.5,2.9c-0.3,0-0.8,0.2-1,0.4c-1.1,1.4-2.2,2.8-3.3,4.2c-2,2.5-5,2.1-6.2-0.9
			c-0.3-0.7-0.6-1.4-0.9-2.2c-0.4,0.5-0.6,0.9-1,1.3c-0.9,1.1-2.1,1.5-3.4,1.2c-1.3-0.3-2.3-1.2-2.5-2.6c-0.3-1.9-0.4-3.9-0.6-5.8
			c0-0.3-0.1-0.7-0.3-1.1c-0.3,0.9-0.6,1.7-0.9,2.6c-1,3-2,6-3,9c-0.4,1.3-1.2,1.8-2.2,1.5c-1.1-0.4-1.5-1.3-1-2.6
			c1.3-4,2.6-7.9,4-11.9c0.6-1.9,2-2.8,3.8-2.6c1.6,0.2,2.8,1.4,3,3.4c0.2,2.1,0.4,4.2,0.5,6.4c0.4-0.5,0.6-0.9,0.9-1.3
			c1.5-1.9,4.4-1.7,5.6,0.5c0.5,0.9,0.9,1.9,1.3,3.1c1.2-1.5,2.4-2.9,3.5-4.4c0.1-0.2,0-0.6-0.1-0.9c-0.7-1.5-0.9-3.1-0.1-4.6
			c2.2-3.9,3.5-8.1,5.1-12.2c0.3-0.6,0.5-1.3,0.9-1.9c4.5-7.8,9-15.6,13.5-23.4c0.2-0.3,0.3-0.6,0.5-0.9c-1.1-0.8-3.1-1.3-2-3.2
			c1.1-1.9,2.5-0.5,3.8,0.1c1.3-2.3,2.6-4.5,3.9-6.7c0.9-1.5,1.1-1.6,2.8-1.4c0.9-1.8,2-3.4,4.2-3.8c1.3-0.3,2.5-0.1,3.7,0.6
			c2.8,1.6,3.1,4.2,1.1,8.5c1,0.9,0.8,1.9,0.2,3c-1.3,2.2-2.5,4.4-3.9,6.7c0.4,0.2,0.8,0.5,1.2,0.7c2.9,1.7,3.7,4.6,2,7.5
			c-2.1,3.7-4.3,7.5-6.5,11.2c-0.7,1.2-1.7,1.5-2.6,1c-0.9-0.5-1.1-1.5-0.4-2.7c2-3.4,4-6.9,6-10.3C110.8,46.5,110.7,45.9,108,44.6z
			 M91.2,66.6c4.6-8,9.1-15.8,13.7-23.7c-2-1.2-3.9-2.3-5.9-3.4c-4.6,8-9.1,15.8-13.7,23.7C87.3,64.3,89.2,65.4,91.2,66.6z
			 M110.1,34c-2-1.2-3.9-2.3-5.9-3.4c-1.2,2-2.3,3.9-3.4,5.9c2,1.2,4,2.3,5.9,3.4C107.8,37.9,108.9,36,110.1,34z M83.9,66.3
			c-0.8,2.2-1.6,4.3-2.4,6.5c1.2,0.7,2.2,1.3,3.4,2c1.5-1.8,2.9-3.5,4.4-5.4C87.5,68.3,85.7,67.3,83.9,66.3z M107.3,28.4
			c1.1,0.6,2,1.1,3,1.7c0.6-1.1,1.5-1.9,0.8-3.1c-0.3-0.4-1-0.8-1.5-0.8C108.2,26.1,108,27.4,107.3,28.4z M83,77.7
			c-1-0.6-2-1.1-3-1.7c-0.6,1-1.5,1.9-0.8,3.1c0.3,0.4,1,0.8,1.5,0.9C82.1,79.9,82.4,78.7,83,77.7z"/>
		<path class="st0" d="M31,15.8c0,1.2,0,2.2,0,3.4c0.5,0,0.9,0,1.3,0c13.5,0,27,0,40.4,0c0.5,0,0.9,0,1.4,0.1
			c0.9,0.2,1.3,0.8,1.3,1.7c0,0.8-0.5,1.5-1.4,1.6c-0.4,0.1-0.8,0.1-1.2,0.1c-14.2,0-28.4,0-42.6,0c-2.2,0-2.7-0.4-2.7-2.6
			c0-1.8,0-3.6,0-5.4c0-1.6,0.6-2.2,2.2-2.3c3.7,0,7.4,0,11.1,0c10.6,0,21.3,0,31.9,0c0.5,0,1,0,1.5,0.2c0.8,0.2,1.2,0.9,1.1,1.7
			c-0.1,0.8-0.5,1.4-1.4,1.5c-0.4,0.1-0.9,0.1-1.3,0.1c-13.5,0-27,0-40.4,0C31.9,15.8,31.4,15.8,31,15.8z"/>
		<path class="st0" d="M33.3,68.9c3.2,0.1,5.7,0.8,8.1,2.3c1.5,1,1.9,1.9,1.3,2.9c-0.6,1-1.6,1-3.2,0c-1.7-1.1-3.5-1.6-5.5-1.7
			c-6-0.3-11,4.2-11.6,10.3c-0.5,5.9,3.8,11.1,10,11.9c5.6,0.7,11.1-3.4,12.1-9.2c0.1-0.6,0.1-1.2,0.2-1.8c0.1-1.1,0.8-1.8,1.8-1.8
			c1,0,1.6,0.8,1.6,1.9c0.1,8.3-7.8,15.3-16,14.2c-7.1-0.9-12.2-6-13-13.1c-0.9-7.4,4.9-14.8,12.4-15.7C32.1,69,32.9,68.9,33.3,68.9
			z"/>
		<path class="st0" d="M59.9,41.5c-6,0-12,0-17.9,0c-0.4,0-0.8,0-1.2-0.1c-0.8-0.2-1.2-0.7-1.3-1.5c-0.1-0.8,0.3-1.4,1-1.7
			c0.4-0.2,0.9-0.2,1.4-0.2c12.1,0,24.2,0,36.3,0c0.4,0,0.9,0,1.3,0.2c0.8,0.3,1.1,0.9,1,1.7c-0.1,0.8-0.5,1.3-1.3,1.4
			c-0.4,0.1-0.8,0.1-1.2,0.1C72,41.5,66,41.5,59.9,41.5z"/>
		<path class="st0" d="M42.8,51.8c-5.3,0-10.6,0-15.9,0c-0.3,0-0.7,0-1,0c-1.1-0.1-1.7-0.7-1.7-1.7c0-1,0.6-1.6,1.7-1.7
			c0.3,0,0.6,0,0.9,0c10.8,0,21.6,0,32.4,0c0.5,0,0.9,0,1.4,0.1c0.8,0.2,1.2,0.8,1.2,1.6c0,0.8-0.5,1.4-1.3,1.6
			c-0.4,0.1-0.9,0.1-1.3,0.1C53.7,51.8,48.2,51.8,42.8,51.8z"/>
		<path class="st0" d="M51.4,26.1c5.4,0,10.9,0,16.3,0c1.7,0,2.5,0.6,2.5,1.7c0,1.2-0.8,1.7-2.6,1.7c-10.8,0-21.7,0-32.5,0
			c-0.5,0-0.9,0-1.4-0.1c-0.8-0.2-1.2-0.8-1.2-1.7c0-0.8,0.5-1.4,1.3-1.6c0.4-0.1,0.9-0.1,1.3-0.1C40.6,26.1,46,26.1,51.4,26.1z"/>
		<path class="st0" d="M34.2,60.3c-2.7,0-5.4,0-8,0c-1.4,0-2.1-0.6-2.1-1.7c0-1.1,0.8-1.7,2.1-1.7c5.4,0,10.8,0,16.3,0
			c1.2,0,2,0.6,2.1,1.6c0.1,1-0.7,1.8-1.9,1.8C39.9,60.3,37.1,60.3,34.2,60.3z"/>
		<path class="st0" d="M33,85c2-2,3.8-3.9,5.7-5.7c0.4-0.4,1-0.8,1.5-0.8c0.5,0,1.2,0.5,1.5,0.9c0.5,0.7,0.2,1.4-0.4,2
			c-1.9,2-3.9,3.9-5.9,5.9c0,0-0.1,0.1-0.2,0.1c-1.4,1.1-3.2,1.2-4.5,0c-1.3-1.2-2.6-2.5-3.8-3.7c-0.7-0.8-0.7-1.8,0-2.4
			c0.7-0.7,1.7-0.7,2.5,0.1C30.6,82.5,31.8,83.7,33,85z"/>
		<path class="st0" d="M72.8,51.8c-1.7,0-3.5,0-5.2,0c-0.4,0-0.8,0-1.2-0.1c-0.8-0.2-1.2-0.8-1.2-1.5c0-0.8,0.4-1.4,1.1-1.6
			c0.4-0.1,0.8-0.1,1.2-0.1c3.6,0,7.2,0,10.8,0c0.3,0,0.6,0,0.9,0.1c0.9,0.2,1.3,0.8,1.3,1.6c0,0.9-0.5,1.5-1.4,1.6
			c-0.9,0.1-1.9,0.1-2.8,0.1C75.1,51.8,74,51.8,72.8,51.8z"/>
		<path class="st0" d="M55.7,60.3c-1.9,0-3.7,0-5.6,0c-1.2,0-2.1-0.7-2-1.7c0-1,0.8-1.7,2-1.7c3.8,0,7.6,0,11.4,0c1.2,0,2,0.7,2,1.7
			c0,1-0.8,1.7-2,1.7C59.5,60.3,57.6,60.3,55.7,60.3z"/>
	</g>
</g>
</svg>
