<?xml version="1.0" encoding="utf-8"?>
<!-- Generator: Adobe Illustrator 24.1.3, SVG Export Plug-In . SVG Version: 6.00 Build 0)  -->
<svg version="1.1" id="Capa_1" xmlns="http://www.w3.org/2000/svg" xmlns:xlink="http://www.w3.org/1999/xlink" x="0px" y="0px"
	 viewBox="0 0 123.9 105.5" style="enable-background:new 0 0 123.9 105.5;" xml:space="preserve">
<style type="text/css">
	.st0{fill:#FFFFFF;}
</style>
<g>
	<g>
		<path class="st0" d="M52.2,0.7c3.6,2.9,7.2,5.8,10.7,8.8c1,0.8,0.9,1.8-0.2,2.7c-3.4,2.7-6.8,5.3-10.1,7.9
			c-0.9,0.7-1.8,0.6-2.4-0.2c-0.5-0.7-0.4-1.7,0.4-2.3c1.7-1.4,3.5-2.7,5.2-4.1c0.2-0.2,0.4-0.3,0.6-0.5c0-0.1-0.1-0.2-0.1-0.3
			c-1.6,0.3-3.1,0.6-4.7,1c-15.2,3.8-27.1,17-29.4,32.5c-3.1,20.1,8.6,38.9,27.9,45c1.2,0.4,2.4,0.6,3.6,1c1.1,0.3,1.7,1,1.5,1.9
			c-0.2,1-1.1,1.5-2.2,1.2C35.5,91.7,22,77.7,19,60C15,36.7,30.7,14.1,53.9,9.9c1.2-0.2,2.3-0.4,3.5-0.5c0.1-0.1,0.2-0.2,0.3-0.3
			c-0.2-0.1-0.5-0.2-0.7-0.3C55,7.2,53,5.6,51.1,4c-1.4-1.2-1.4-2.1,0-3.2C51.5,0.7,51.8,0.7,52.2,0.7z"/>
		<path class="st0" d="M62,24.1c15.7,0,28.5,12.9,28.5,28.6c0,15.7-12.9,28.6-28.6,28.5c-15.7-0.1-28.5-12.9-28.5-28.6
			C33.4,36.9,46.3,24.1,62,24.1z M61.9,78c13.9,0,25.3-11.4,25.3-25.3c0-13.9-11.3-25.2-25.2-25.3c-13.9-0.1-25.3,11.3-25.3,25.3
			C36.6,66.5,48,78,61.9,78z"/>
		<path class="st0" d="M66.3,96.2c2.1,1.7,4.2,3.3,6.2,4.8c0.1,0.1,0.2,0.2,0.3,0.2c1.2,0.9,1.5,1.9,0.8,2.7
			c-0.7,0.9-1.6,0.8-2.8-0.1c-3.2-2.5-6.3-4.9-9.5-7.4c-1.4-1.1-1.4-2,0-3.1c3.2-2.6,6.3-5.2,9.5-7.8c0.4-0.3,1-0.7,1.5-0.6
			c0.5,0.1,1.1,0.5,1.4,1c0.4,0.7,0.1,1.4-0.5,1.9c-1.6,1.4-3.3,2.7-4.9,4.1c-0.3,0.2-0.5,0.5-0.8,0.7c0,0.1,0.1,0.2,0.1,0.3
			c1.9-0.4,3.7-0.7,5.5-1.3c15.6-5,25.3-15.5,28.6-31.5c4.1-20.7-9.7-41.8-30.3-46.4c-0.3-0.1-0.6-0.1-0.9-0.2c-1-0.3-1.5-1.1-1.2-2
			c0.3-0.9,1.1-1.3,2.1-1.1c3.8,0.8,7.5,2.1,10.9,4c12.5,6.8,20.2,17.3,22.8,31.3c4.1,22.7-11.1,45.2-33.7,49.9
			C69.6,95.6,68.1,95.9,66.3,96.2z"/>
		<path class="st0" d="M63.5,68.3c0,0.9,0,1.8,0,2.6c0,1.1-0.6,1.8-1.6,1.8c-1,0-1.6-0.7-1.6-1.8c0-0.9,0-1.8,0-2.6
			c-0.9-0.4-1.7-0.6-2.5-1c-2.8-1.5-4.3-3.9-4.6-7.1c-0.1-1.3,0.5-2.1,1.5-2.1c1-0.1,1.6,0.6,1.8,1.9c0.2,2.4,1.4,4,3.7,4.9
			c2.1,0.8,4.4,0.2,5.8-1.5c1.6-1.8,1.8-4,1-6.2c-0.4-1.1-1.4-1.8-2.5-2.1c-1.3-0.4-2.7-0.8-4-1.1c-0.5-0.1-0.9-0.2-1.4-0.4
			c-4.1-1.4-5.9-3.9-5.9-8c0-3.8,2.5-7.1,6.2-8.3c0.3-0.1,0.6-0.2,0.9-0.3c0-0.9,0-1.8,0-2.7c0-1.1,0.7-1.8,1.6-1.8
			c0.9,0,1.6,0.7,1.6,1.7c0,0.9,0,1.8,0,2.7c0.7,0.2,1.3,0.4,1.9,0.7c3.2,1.5,5,4.1,5.1,7.6c0,0.6-0.4,1.3-0.9,1.6
			c-0.3,0.3-1.2,0.2-1.6-0.1c-0.4-0.3-0.7-0.9-0.7-1.4c-0.2-2.4-1.3-4.1-3.6-5c-2.1-0.8-4-0.4-5.6,1.1c-1.8,1.7-2.1,3.8-1.4,6.1
			c0.4,1.3,1.3,2.1,2.6,2.5c1.1,0.4,2.3,0.7,3.5,1c0.6,0.2,1.1,0.3,1.7,0.4c4.1,1.2,6.1,3.8,6.1,8c0,3.8-2.5,7.3-6.1,8.4
			C64.2,68.2,63.9,68.2,63.5,68.3z"/>
	</g>
</g>
</svg>
