<?xml version="1.0" encoding="utf-8"?>
<!-- Generator: Adobe Illustrator 24.1.3, SVG Export Plug-In . SVG Version: 6.00 Build 0)  -->
<svg version="1.1" id="Capa_1" xmlns="http://www.w3.org/2000/svg" xmlns:xlink="http://www.w3.org/1999/xlink" x="0px" y="0px"
	 viewBox="0 0 123.9 105.5" style="enable-background:new 0 0 123.9 105.5;" xml:space="preserve">
<style type="text/css">
	.st0{fill:#FFFFFF;}
</style>
<g>
	<g>
		<path class="st0" d="M106.8,104.9c-29.9,0-59.8,0-89.8,0c-0.2-0.1-0.3-0.1-0.5-0.2c-3.6-0.9-5.9-3.7-5.9-7.4c0-25.1,0-50.3,0-75.4
			c0-1.2,0.4-2.6,1-3.7c1.5-2.8,4-4,7.1-4c12.6,0,25.2,0,37.9,0c0.4,0,0.8,0,1.3,0c0.1-0.4,0.2-0.6,0.2-0.8C59.3,7,64.6,2.4,71,2.3
			c6.5-0.1,12,4.4,13.2,10.8c0.2,0.9,0.5,1.1,1.3,1.1c6.6,0,13.2,0,19.7,0c3.9,0,6.7,2.2,7.7,6c0,0.1,0.1,0.2,0.2,0.3
			c0,26,0,52,0,78c-0.7,2.5-2.1,4.5-4.5,5.6C108.1,104.5,107.5,104.7,106.8,104.9z M71.2,57c2.8-2.7,5.8-5.4,8.6-8.2
			c3.1-3.1,6.2-6.3,9.3-9.4c1-1,2.2-0.8,2.7,0.4c0.3,0.8-0.2,1.4-0.7,1.9C84.9,47.9,78.9,54,72.8,60.2c-1.2,1.2-1.8,1.2-3,0
			C64.4,54.8,59,49.4,53.6,44c-8.7-8.7-17.3-17.3-26-26c-0.3-0.3-0.9-0.7-1.3-0.7c-2.7-0.1-5.4-0.1-8,0c-0.6,0-1.2,0.2-1.9,0.3
			c0,0.1-0.1,0.2-0.1,0.3c0.3,0.2,0.6,0.4,0.9,0.7c5.3,5.3,10.6,10.6,15.9,15.9c1.4,1.4,1.4,1.9,0,3.2c-6.3,6.3-12.6,12.6-18.8,18.9
			c-0.3,0.4-0.6,1-0.6,1.5c-0.1,3.1,0,6.2,0,9.3c0,0.3,0,0.6,0,1c0.4-0.4,0.6-0.6,0.9-0.9c8-8,16-16,24-24c1.5-1.5,1.9-1.5,3.4,0
			c17.5,17.5,35,35,52.6,52.6c1.8,1.8,3.5,3.6,5.3,5.3c0.3,0.3,0.7,0.5,1.1,0.5c1.6,0.1,3.2,0.1,4.8,0c1.5,0,2.7-0.7,3.8-2.2
			c-0.3-0.2-0.6-0.4-0.9-0.6c-9.9-9.9-19.8-19.8-29.8-29.7c-1.5-1.5-1.5-1.9,0-3.5c10.2-10.6,20.4-21.1,30.7-31.7
			c0.5-0.5,0.7-1,0.7-1.7c0-3.1,0-6.3,0-9.4c0-0.3,0-0.6-0.1-0.8c-1.2,1.2-2.4,2.2-3.5,3.4c-3.1,3.1-6.1,6.2-9.1,9.3
			c-1,1-2.2,0.8-2.7-0.4c-0.3-0.8,0.2-1.3,0.7-1.8c4.3-4.4,8.6-8.7,12.8-13.1c0.2-0.3,0.5-0.5,0.7-0.8c-1-1.2-2.3-1.6-3.7-1.6
			c-6.7,0-13.4,0-20,0c-0.3,0-0.6,0-0.9,0.1c-0.1,0.2-0.1,0.3-0.1,0.4c-0.7,6.1-2.8,11.7-5.9,16.8c-1.2,1.9-2.7,3.7-4.3,5.3
			c-1.9,1.8-3.8,1.7-5.8,0.1c-1.1-0.9-2-1.9-2.8-3c-2.9-3.9-4.8-8.3-6.2-12.9c-0.7-2.2-1.1-4.4-1.6-6.7c-8.7,0-17.5,0-26.3,0
			C44.8,30.6,58.1,43.9,71.2,57z M40.3,46.1c-0.1,0.1-0.2,0.2-0.3,0.2C31.3,55,22.7,63.7,14.1,72.3c-0.3,0.3-0.4,0.8-0.4,1.2
			c0,7.8,0,15.6,0,23.4c0,3.1,1.8,4.9,4.9,4.9c25.5,0,51.1,0,76.6,0c0.3,0,0.5,0,0.9-0.1C77.4,83.3,58.9,64.7,40.3,46.1z M81.7,67.3
			c9.6,9.6,19.1,19.1,28.5,28.5c0-19,0-38.4,0-57.8C100.5,47.9,91,57.7,81.7,67.3z M60.9,16c0,0.3,0,0.8,0.1,1.2
			c0,0.2,0,0.4,0.1,0.6c0.9,5.7,2.9,11,6,15.9c0.9,1.4,2.1,2.6,3.2,3.8c0.6,0.7,1.4,0.6,2,0c0.6-0.6,1.2-1.1,1.7-1.8
			c4.2-5.7,6.8-12,7.5-19c0.6-5.9-3.8-11.1-9.7-11.4C65.7,5.1,60.8,9.8,60.9,16z M13.8,19.9c-0.4,5.6-0.1,11-0.2,16.5
			c-0.1,5.5,0,11,0,16.4c5.6-5.6,11.1-11.1,16.5-16.5C24.8,30.9,19.4,25.5,13.8,19.9z"/>
		<path class="st0" d="M54.2,73.4c-0.2,4.9-1.6,9.6-3.6,14c-1.3,2.9-2.8,5.7-4.9,8.1c-0.8,0.9-1.8,1.7-2.8,2.4c-1.3,0.9-2.8,0.9-4,0
			c-1.2-0.9-2.4-1.8-3.3-3c-4.5-6.3-7.4-13.2-8-20.9C26.8,64.2,37,57,46,60.9c1.2,0.5,1.5,1.1,1.2,2.1c-0.4,1-1.1,1.2-2.3,0.7
			c-7.6-2.9-15.1,2.8-14.2,10.9c0.8,6.9,3.4,13.2,7.5,18.8c0.4,0.6,1,1.1,1.5,1.6c0.9,0.8,1.5,0.9,2.3,0c1.4-1.6,2.9-3.3,4-5.1
			c2.6-4.4,4.4-9.2,5.1-14.3c0.3-2.3,0.2-4.7-0.8-6.8c-0.5-0.9-0.2-1.7,0.6-2.1c0.9-0.4,1.6-0.1,2.1,0.9
			C53.8,69.4,54.2,71.3,54.2,73.4z"/>
		<path class="st0" d="M33.9,73.5c0-3.9,3.1-7,7-7c3.9,0,7.1,3.2,7.1,7c0,3.9-3.2,7-7,7C37,80.5,33.9,77.4,33.9,73.5z M40.8,69.5
			c-2.2,0-4,1.8-4,4c0,2.2,1.8,4,4,4c2.2,0,4-1.8,4-4C44.9,71.3,43.1,69.5,40.8,69.5z"/>
		<path class="st0" d="M71.2,23c-3.9,0-7-3.1-7-7c0-3.9,3.2-7.1,7.1-7.1c3.9,0,7,3.2,7,7C78.2,19.9,75.1,23,71.2,23z M75.2,16
			c0-2.2-1.8-4-4-4c-2.2,0-4,1.8-4,4c0,2.2,1.8,4,4,4C73.4,20,75.2,18.2,75.2,16z"/>
	</g>
</g>
</svg>
