<?xml version="1.0" encoding="utf-8"?>
<!-- Generator: Adobe Illustrator 24.1.3, SVG Export Plug-In . SVG Version: 6.00 Build 0)  -->
<svg version="1.1" id="Capa_1" xmlns="http://www.w3.org/2000/svg" xmlns:xlink="http://www.w3.org/1999/xlink" x="0px" y="0px"
	 viewBox="0 0 1957.2 444.1" style="enable-background:new 0 0 1957.2 444.1;" xml:space="preserve">
<style type="text/css">
	.st0{fill:#FFFFFF;}
</style>
<path class="st0" d="M1146.6,125.1c-16.3,0-28.9,12.6-28.9,30.1c0,13.8,8.8,21.3,22.6,21.3c16.3,0,28.9-12.6,28.9-30.1
	C1169.2,133.9,1161.7,125.1,1146.6,125.1z M1095.1,132.7c0-1.3-1.3-1.3-2.5-1.3h-36.4c-1.3,0-2.5,1.3-3.8,2.5
	c0,0-13.8,70.3-15.1,74.1c-8.8-16.3-27.6-26.4-49-26.4c-44,0-76.6,35.2-76.6,84.1c0,40.2,23.9,67.8,60.3,67.8
	c17.6,0,32.7-7.5,44-20.1c-1.3,3.8-1.3,7.5-2.5,11.3c0,1.3,0,2.5,1.3,2.5c0,1.3,1.3,1.3,2.5,1.3h36.4c1.3,0,2.5-1.3,3.8-2.5
	l38.9-192.1L1095.1,132.7z M1024.8,258.3c-1.3,5-2.5,10-5,13.8s-5,8.8-8.8,11.3c-3.8,3.8-7.5,6.3-11.3,7.5c-7.5,3.8-17.6,3.8-25.1,0
	c-3.8-1.3-6.3-3.8-8.8-6.3s-3.8-6.3-5-10s-1.3-7.5-1.3-12.6c0-5,1.3-11.3,3.8-16.3c2.5-5,5-10,8.8-13.8c3.8-3.8,7.5-6.3,12.6-8.8
	s10-3.8,15.1-3.8c5,0,8.8,1.3,12.6,2.5c3.8,1.3,6.3,3.8,8.8,7.5c2.5,2.5,3.8,6.3,5,11.3C1026,248.2,1026,253.2,1024.8,258.3
	L1024.8,258.3z M1152.9,198h-37.7c-1.3,0-2.5,1.3-3.8,2.5l-25.1,125.6c0,1.3,0,1.3,1.3,2.5c1.3,1.3,1.3,1.3,2.5,1.3h37.7
	c1.3,0,2.5-1.3,3.8-2.5l25.1-125.6c0-1.3,0-1.3-1.3-2.5C1154.1,199.2,1152.9,198,1152.9,198z M605.3,318.5
	c3.8-17.6,11.3-55.3,11.3-55.3h44c50.2,0,82.9-27.6,82.9-70.3c0-37.7-26.4-61.5-70.3-61.5h-75.3c-1.3,0-2.5,1.3-3.8,2.5l-37.7,190.9
	c0,1.3,0,2.5,1.3,2.5c0,1.3,1.3,1.3,2.5,1.3H594C592.8,329.8,602.8,329.8,605.3,318.5L605.3,318.5z M661.9,221.8h-37.7
	c0-1.3,10-47.7,10-50.2h35.2c16.3,0,26.4,7.5,26.4,21.3C694.5,211.8,683.2,221.8,661.9,221.8L661.9,221.8z M1431.7,182.9
	c-49,0-85.4,35.2-85.4,84.1c0,41.4,28.9,67.8,72.8,67.8c49,0,85.4-35.2,85.4-84.1C1503.2,209.3,1475.6,182.9,1431.7,182.9z
	 M1421.6,292.2c-18.8,0-30.1-10-30.1-27.6c0-22.6,15.1-37.7,36.4-37.7c18.8,0,30.1,10,30.1,27.6C1458,275.8,1443,292.2,1421.6,292.2
	z M1351.3,132.7c0-1.3-1.3-1.3-2.5-1.3h-36.4c-1.3,0-2.5,1.3-3.8,2.5c0,0-13.8,70.3-15.1,74.1c-8.8-16.3-27.6-26.4-49-26.4
	c-44,0-76.6,35.2-76.6,84.1c0,40.2,23.9,67.8,60.3,67.8c17.6,0,32.7-7.5,44-20.1c-1.3,3.8-1.3,7.5-2.5,11.3c0,1.3,0,2.5,1.3,2.5
	c0,1.3,1.3,1.3,2.5,1.3h36.4c1.3,0,2.5-1.3,3.8-2.5l38.9-192.1C1352.6,133.9,1351.3,133.9,1351.3,132.7L1351.3,132.7z M1282.2,258.3
	c-1.3,5-2.5,10-5,13.8c-2.5,3.8-5,8.8-8.8,11.3c-3.8,3.8-7.5,6.3-11.3,7.5c-7.5,3.8-17.6,3.8-25.1,0c-3.8-1.3-6.3-3.8-8.8-6.3
	s-3.8-6.3-5-10c-1.3-3.8-1.3-7.5-1.3-12.6c0-5,1.3-11.3,3.8-16.3c2.5-5,5-10,8.8-13.8c3.8-3.8,7.5-6.3,12.6-8.8
	c5-2.5,10-3.8,15.1-3.8s8.8,1.3,12.6,2.5s6.3,3.8,8.8,7.5c2.5,2.5,3.8,6.3,5,11.3C1282.2,248.2,1282.2,253.2,1282.2,258.3
	L1282.2,258.3z M1623.8,194.2c-18.8-8.8-38.9-12.6-56.5-11.3c-31.4,2.5-49,21.3-46.5,49c1.3,16.3,11.3,28.9,28.9,38.9l20.1,10
	c7.5,3.8,8.8,6.3,8.8,8.8c0,6.3-6.3,7.5-10,7.5c-12.6,1.3-27.6-3.8-44-13.8h-2.5c-1.3,0-1.3,1.3-2.5,1.3l-16.3,27.6
	c-1.3,1.3,0,3.8,1.3,3.8c20.1,13.8,42.7,20.1,65.3,17.6c35.2-2.5,52.7-21.3,50.2-50.2c-1.3-17.6-10-28.9-28.9-38.9l-17.6-8.8
	c-10-6.3-11.3-7.5-11.3-10c0-1.3,0-6.3,10-7.5s22.6,2.5,35.2,8.8h2.5c1.3,0,1.3-1.3,1.3-1.3l12.6-28.9
	C1626.3,196.7,1625.1,194.2,1623.8,194.2z M1821,137.7c0-1.3-1.3-2.5-2.5-2.5H1767c-1.3,0-2.5,0-2.5,1.3c0,0-51.5,72.8-55.3,79.1
	c-1.3-6.3-26.4-77.9-26.4-77.9c0-1.3-1.3-2.5-3.8-2.5h-45.2c-1.3,0-2.5,0-2.5,1.3c-1.3,1.3-1.3,2.5,0,3.8l47.7,120.6l-13.8,70.3
	c0,1.3,0,2.5,1.3,2.5c1.3,1.3,1.3,1.3,2.5,1.3h36.4c5,0,8.8-3.8,10-7.5L1728,262l94.2-121.8C1821,140.2,1821,138.9,1821,137.7
	L1821,137.7z M1930.2,191.7c0-1.3-1.3-1.3-2.5-1.3h-35.2c-1.3,0-2.5,1.3-2.5,2.5c0,0-1.3,6.3-2.5,11.3c-7.5-10-20.1-15.1-32.7-16.3
	c-11.3-1.3-22.6,1.3-32.7,5c-35.2,13.8-57.8,47.7-57.8,85.4c0,32.7,21.3,55.3,54,56.5c17.6,1.3,32.7-5,46.5-16.3
	c-1.3,3.8-1.3,7.5-2.5,11.3c0,1.3,0,1.3,1.3,2.5c0,1.3,1.3,1.3,2.5,1.3h35.2c1.3,0,2.5-1.3,2.5-2.5l27.6-136.9
	C1930.2,194.2,1930.2,192.9,1930.2,191.7L1930.2,191.7z M1875,262c-1.3,5-2.5,10-5,13.8c-2.5,3.8-5,7.5-8.8,11.3l-11.3,7.5
	c-7.5,3.8-17.6,3.8-23.9,0c-3.8-1.3-6.3-3.8-8.8-6.3s-3.8-5-5-8.8c-1.3-3.8-1.3-7.5-1.3-12.6c0-5,1.3-10,3.8-15.1
	c2.5-5,5-8.8,8.8-12.6c3.8-3.8,7.5-6.3,11.3-8.8c5-2.5,8.8-2.5,13.8-2.5c3.8,0,8.8,1.3,11.3,2.5c3.8,1.3,6.3,3.8,8.8,6.3
	c2.5,2.5,3.8,6.3,5,11.3C1876.2,252,1876.2,257,1875,262L1875,262z M830.1,182.9c-49,0-84.1,35.2-84.1,84.1
	c0,41.4,28.9,67.8,74.1,67.8c20.1,0,37.7-5,55.3-17.6c1.3-1.3,1.3-3.8,0-5l-22.6-22.6c-1.3-1.3-2.5-1.3-3.8,0
	c-10,5-18.8,7.5-28.9,7.5c-21.3,0-32.7-10-32.7-26.4h101.7c1.3,0,2.5-1.3,3.8-2.5c2.5-10,3.8-17.6,3.8-26.4
	C895.4,205.5,870.3,182.9,830.1,182.9L830.1,182.9z M792.5,239.4c6.3-16.3,18.8-23.9,36.4-23.9c18.8,0,27.6,8.8,27.6,25.1
	C854,239.4,795,239.4,792.5,239.4z M302.7,9.6H10.1c-5,0-7.5,2.5-7.5,7.5v41.4c0,46.5,32.7,71.6,91.7,71.6h209.7
	c22.6,0,40.2,17.6,40.2,40.2s-17.6,40.2-40.2,40.2H67.9c-3.8,0-6.3,2.5-7.5,5l-54,219.8c0,2.5,0,5,1.3,6.3s3.8,2.5,6.3,2.5H88
	c27.6,0,41.4-22.6,44-35.2l21.3-79.1h149.4c87.9,0,160.7-71.6,160.7-160.7C463.4,81.2,391.9,9.6,302.7,9.6L302.7,9.6z"/>
</svg>
