<?xml version="1.0" encoding="utf-8"?>
<!-- Generator: Adobe Illustrator 24.1.3, SVG Export Plug-In . SVG Version: 6.00 Build 0)  -->
<svg version="1.1" id="Capa_1" xmlns="http://www.w3.org/2000/svg" xmlns:xlink="http://www.w3.org/1999/xlink" x="0px" y="0px"
	 viewBox="0 0 7 6.7" style="enable-background:new 0 0 7 6.7;" xml:space="preserve">
<style type="text/css">
	.st0{fill:#FFFFFF;}
</style>
<path class="st0" d="M2.4,0C2.4,0,2.4,0,2.4,0C1.7,0,0.9,0,0.2,0C0,0,0,0,0,0.2c0,0.2,0,0.4,0,0.6c0,0.5,0.2,0.8,0.7,0.9
	c0.3,0.1,0.5,0.1,0.8,0.1c1,0,2,0,3.1,0C4.7,1.9,5,2,5.1,2.2c0.2,0.4,0,0.9-0.5,0.9c-1.2,0-2.3,0-3.5,0c-0.1,0-0.2,0-0.2,0.2
	C0.6,4.3,0.3,5.4,0.1,6.5c0,0.2,0,0.2,0.2,0.2c0.3,0,0.7,0,1,0c0.4,0,0.7-0.2,0.8-0.6c0.1-0.3,0.2-0.7,0.3-1c0-0.1,0.1-0.1,0.2-0.1
	c0.6,0,1.1,0,1.7,0c0.3,0,0.5,0,0.8,0C6.1,4.8,7.2,3.7,7,2.1C6.8,0.9,5.8,0,4.6,0C3.9,0,3.1,0,2.4,0z"/>
</svg>
